# xmcd
#
# Track frame offsets:
# 150
# 16106
# 30150
# 49290
# 62702
# 80661
# 93952
# 104424
# 121453
# 136602
# 151926
# 167332
# 182455
# 200252
#
# Disc length: 2851 seconds
#
#
# Revision: 0
# Processed by: cddbd v1.5.1PL0 Copyright (c) Steve Scherf et al.
# Submitted via: FreeRIP 2.942 
#
DISCID=a00b210e
DTITLE=Various Artist - Music From Outback Adventures [Disc 1]
DYEAR=1998
DGENRE=Country
TTITLE0=Lee Kernaghan - This Is The Outback
TTITLE1=Gina Jeffreys - Girl Talk
TTITLE2=Lyn Bowtell and Karen O'Shea - I Can Fly
TTITLE3=Tania Kernaghan - Boys In Boots
TTITLE4=Troy Dann and Scott Dann - Bulldoggin'
TTITLE5=Lee Kernaghan and Tray Cassar-Daley - Workin' For The Man
TTITLE6=Pixie Jenkins - Nutcracker
TTITLE7=Tania Kernaghan - Hobble Chains
TTITLE8=Lee Kernaghan - Scrubbashin'
TTITLE9=Gina Jeffreys - Hard Working Man
TTITLE10=Johnno's Blues Band - Don't Knock The Croc
TTITLE11=Lee Kernaghan - The Outback Club
TTITLE12=Troy Dann and Scott Dann - Austrlian Trilogy
TTITLE13=Samantha Dann - Country Girl
EXTD=
EXTT0=
EXTT1=
EXTT2=
EXTT3=
EXTT4=
EXTT5=
EXTT6=
EXTT7=
EXTT8=
EXTT9=
EXTT10=
EXTT11=
EXTT12=
EXTT13=
PLAYORDER=
